<!-- Generated by IcoMoon.io -->
<svg version="1.1" xmlns="http://www.w3.org/2000/svg" width="32" height="32" viewBox="0 0 32 32">
<path d="M26.4 32h-20.8c-1.323 0-2.4-1.077-2.4-2.4v-25.6c0-1.323 1.077-2.4 2.4-2.4h20.8c1.323 0 2.4 1.077 2.4 2.4v25.6c0 1.323-1.077 2.4-2.4 2.4zM5.6 3.2c-0.441 0-0.8 0.359-0.8 0.8v25.6c0 0.441 0.359 0.8 0.8 0.8h20.8c0.441 0 0.8-0.359 0.8-0.8v-25.6c0-0.441-0.359-0.8-0.8-0.8h-20.8zM20 8h-11.2c-0.442 0-0.8-0.358-0.8-0.8s0.358-0.8 0.8-0.8h11.2c0.442 0 0.8 0.358 0.8 0.8s-0.358 0.8-0.8 0.8zM23.2 11.2h-14.4c-0.442 0-0.8-0.358-0.8-0.8s0.358-0.8 0.8-0.8h14.4c0.442 0 0.8 0.358 0.8 0.8s-0.358 0.8-0.8 0.8zM23.2 14.4h-14.4c-0.442 0-0.8-0.358-0.8-0.8s0.358-0.8 0.8-0.8h14.4c0.442 0 0.8 0.358 0.8 0.8s-0.358 0.8-0.8 0.8zM16.8 17.6h-8c-0.442 0-0.8-0.358-0.8-0.8s0.358-0.8 0.8-0.8h8c0.442 0 0.8 0.358 0.8 0.8s-0.358 0.8-0.8 0.8zM23.2 24h-14.4c-0.442 0-0.8-0.358-0.8-0.8s0.358-0.8 0.8-0.8h14.4c0.442 0 0.8 0.358 0.8 0.8s-0.358 0.8-0.8 0.8zM20 27.2h-11.2c-0.442 0-0.8-0.358-0.8-0.8s0.358-0.8 0.8-0.8h11.2c0.442 0 0.8 0.358 0.8 0.8s-0.358 0.8-0.8 0.8z"></path>
</svg>
