<svg version="1.1" id="Layer_1" xmlns="http://www.w3.org/2000/svg" x="0" y="0" viewBox="0 0 68 68" xml:space="preserve"><path d="M57.2 48.7c2.7-2.1 4.4-5.4 4.4-9.1 0-6-4.6-10.9-10.4-11.5-2.4-3.4-5.9-6-9.8-7.5 2.6-2.1 4.2-5.4 4.2-8.9C45.6 5.2 40.4 0 34 0S22.4 5.2 22.4 11.6c0 3.6 1.6 6.8 4.2 8.9-4 1.5-7.4 4.1-9.8 7.5-5.8.7-10.4 5.6-10.4 11.6 0 3.7 1.7 7 4.4 9.1C4.5 51.5 0 57.8 0 65.2c0 1.1.9 2 2 2s2-.9 2-2c0-7.7 6.3-14 14-14s14 6.3 14 14c0 1.1.9 2 2 2s2-.9 2-2c0-7.7 6.3-14 14-14s14 6.3 14 14c0 1.1.9 2 2 2s2-.9 2-2c0-7.4-4.5-13.7-10.8-16.5zM26.4 11.6C26.4 7.4 29.8 4 34 4c4.2 0 7.6 3.4 7.6 7.6 0 4.2-3.4 7.6-7.6 7.6-4.2 0-7.6-3.4-7.6-7.6zM18 47.2c-4.2 0-7.6-3.4-7.6-7.6 0-4.2 3.4-7.6 7.6-7.6s7.6 3.4 7.6 7.6c0 4.2-3.4 7.6-7.6 7.6zM34 57c-1.9-3.7-5-6.6-8.8-8.3 2.7-2.1 4.4-5.4 4.4-9.1 0-5.2-3.4-9.5-8.1-11 3.1-3.3 7.6-5.4 12.5-5.4s9.3 2.1 12.5 5.4c-4.7 1.5-8.1 5.9-8.1 11 0 3.7 1.7 7 4.4 9.1-3.8 1.7-6.9 4.6-8.8 8.3zm16-9.8c-4.2 0-7.6-3.4-7.6-7.6 0-4.2 3.4-7.6 7.6-7.6s7.6 3.4 7.6 7.6c0 4.2-3.4 7.6-7.6 7.6z" fill="#272727"/></svg>