<svg width="39" height="31" viewBox="0 0 39 31" fill="none" xmlns="http://www.w3.org/2000/svg"><path d="M14.166 30.422H.446v-9.815c0-3.97.341-7.096 1.025-9.375.716-2.31 2.018-4.378 3.906-6.2C7.265 3.207 9.674 1.775 12.604.733l2.685 5.664c-2.734.912-4.704 2.181-5.908 3.809-1.172 1.628-1.79 3.792-1.856 6.494h6.641v13.72zm22.9 0h-13.72v-9.815c0-4.003.341-7.145 1.025-9.423.716-2.279 2.018-4.33 3.906-6.153 1.92-1.823 4.33-3.255 7.227-4.297l2.686 5.664c-2.735.912-4.704 2.181-5.909 3.809-1.172 1.628-1.79 3.792-1.855 6.494h6.64v13.72z" fill="#46413E"/></svg>