<svg xmlns="http://www.w3.org/2000/svg" viewBox="0 0 385 41"><path fill="none" stroke="#FFDC14" stroke-width="8" d="M13.64 16.37c119.29-.11 238.57-.48 357.86-.35 2.98 0 11.88.63 8.9.77-137.45 6.73-51.69 1.3-208.31.6-44.68-.2-190.47-10.98-134.02 1.55 44.78 11.4 69.09.67 170 6.47 42.64-1.07 166.03 11.16 122.95 11.27-788 2.1 195.26-15.56-6.48-10.79-65.4 2.47-93.27 21.24-256 3.5-204.79-43.13 141.58-5.87 249.35-21.51 28.07-4.08-76.56 2.86-107.34 2.43-47.48-.66-79.85-4.66-127.33-5.69-.73-.01-1.06 1.98-.33 1.97 34.12-.2 68.2-2.87 102.32-2.57 59.94.53 239.67 4.9 179.73 5.06C46.59 9.9 149.32 5.34 61.97 6.2"/></svg>