<svg xmlns="http://www.w3.org/2000/svg" width="298" height="35" viewBox="0 0 298 35" fill="none"><path d="M236.696 31.175c-44.15-.304-176.515-1.22-132.41-2.972 39.801-1.582 80.255.242 119.956 2.852 57.665 3.79-95.497 1.433-153.2-1.888C-.926 25.024 194.99 32.77 267.114 32.34c39.34-.235-78.523-4.426-117.827-5.905-32.31-1.216-129.143-5.98-96.947-3.334 33.684 2.769 67.799 3.711 101.577 5.021 25.928 1.006 47.707 1.75 73.427 1.968 10.167.087 40.205-.207 30.371-2.45-7.019-1.6-30.77-4.02-35.186-4.418-34.709-3.137-69.587-4.694-104.446-5.865-14.93-.501-36.72-1.124-52.594-1.124-23.137 0 .055 1.995 3.056 2.249 41.41 3.504 83.241 4.374 124.817 4.82 11.649.125 38.349.198 51.668-.402 22.908-1.031-3.386-3.426-6.482-3.655-57.324-4.24-115.287-4.145-172.781-4.539-10.648-.073-21.355-.804-31.945.16-14.383 1.31 28.835 2.077 43.288 2.531 58.701 1.847 117.519 2.317 176.253 1.688 4.034-.044 30.854-.154 39.909-1.366 13.612-1.823-27.433-2.517-41.205-2.692-56.28-.714-112.669-.128-168.893 2.25-4.703.199-28.486 1.397-35.834 2.169-1.282.135-4.063-.243-3.75.843.348 1.208 2.782.675 4.213.764 5.083.314 10.183.401 15.279.441 47.925.378 96.122-1.883 143.892-5.02 19.758-1.298 40.942-2.779 60.603-5.905 4.929-.784 10.035-1.346 14.583-3.173.912-.367.741-2.273-.185-2.611-3.786-1.383-8.036-1.598-12.13-1.888-17.065-1.21-49.051-.943-64.26-.643-46.574.919-93.151 3.244-139.587 6.427-14.66 1.005-35.99 2.524-51.575 4.539-23.623 3.054 7.676 3.317 8.38 3.334 74.112 1.76 296.314-9.758 222.181-8.917-59.46.674-118.932 4.3-178.384 5.704-20.2.477-35.605.731-55.186 1.044-2.778.044-5.557.05-8.334.12-5.368.135 10.741.04 16.112.04 63.952 0 255.808.119 191.856 0-40.618-.075-81.236-.738-121.855-.602-7.355.025-22.934.017-31.76.683-9.508.717 1.363 1.662 2.593 2.089" stroke="#E3C200" stroke-width="4" stroke-linecap="round"/></svg>