<svg width="68" height="68" viewBox="0 0 68 68" fill="none" xmlns="http://www.w3.org/2000/svg"><path d="M18 34a2 2 0 104 0h-4zm28 0a2 2 0 104 0h-4zm20 2a2 2 0 100-4v4zm-10-4a2 2 0 100 4v-4zm2.042-19.213a2 2 0 00-2.829-2.829l2.829 2.829zm-9.9 4.242a2 2 0 102.829 2.829l-2.829-2.829zM36 2a2 2 0 10-4 0h4zm-4 10a2 2 0 104 0h-4zM12 36a2 2 0 100-4v4zM2 32a2 2 0 100 4v-4zm15.03-12.142a2 2 0 002.828-2.829l-2.829 2.829zm-4.243-9.9a2 2 0 10-2.829 2.829l2.829-2.829zM6 42v-2a2 2 0 00-1.973 1.671L6 42zm56 0l1.973-.329A2 2 0 0062 40v2zm4 24v2a2 2 0 001.973-2.329L66 66zM2 66l-1.973-.329A2 2 0 002 68v-2zm34-24a2 2 0 10-4 0h4zm-4 24a2 2 0 104 0h-4zM21.993 42.166a2 2 0 00-3.986-.332l3.986.332zm-5.986 23.668a2 2 0 003.986.332l-3.986-.332zm33.986-24a2 2 0 00-3.986.332l3.986-.332zm-1.986 24.332a2 2 0 003.986-.332l-3.986.332zM4 52a2 2 0 100 4v-4zm60 4a2 2 0 100-4v4zM22 34c0-6.627 5.372-12 12-12v-4c-8.837 0-16 7.163-16 16h4zm12-12c6.627 0 12 5.373 12 12h4c0-8.837-7.164-16-16-16v4zm32 10H56v4h10v-4zM55.213 9.958l-7.07 7.071 2.828 2.829 7.07-7.071-2.828-2.829zM32 2v10h4V2h-4zM12 32H2v4h10v-4zm7.858-14.97l-7.071-7.072-2.829 2.829 7.071 7.07 2.829-2.828zM6 44h56v-4H6v4zm54.027-1.671l4 24 3.946-.658-4-24-3.946.658zM66 64H2v4h64v-4zM3.973 66.329l4-24-3.946-.658-4 24 3.946.658zM32 42v24h4V42h-4zm-13.993-.166l-2 24 3.986.332 2-24-3.986-.332zm28 .332l2 24 3.986-.332-2-24-3.986.332zM4 56h60v-4H4v4z" fill="#272727"/></svg>