<svg width="68" height="68" viewBox="0 0 68 68" fill="none" xmlns="http://www.w3.org/2000/svg"><path d="M18 34a2 2 0 104 0h-4zm28 0a2 2 0 104 0h-4zm20 2a2 2 0 100-4v4zm-10-4a2 2 0 100 4v-4zm2.042-19.213a2 2 0 00-2.829-2.829l2.829 2.829zm-9.9 4.242a2 2 0 102.829 2.829l-2.829-2.829zM36 2a2 2 0 10-4 0h4zm-4 10a2 2 0 104 0h-4zM12 36a2 2 0 100-4v4zM2 32a2 2 0 100 4v-4zm15.03-12.142a2 2 0 002.828-2.829l-2.829 2.829zm-4.243-9.9a2 2 0 10-2.829 2.829l2.829-2.829zM19.125 42v-2a2 2 0 00-1.992 1.824l1.992.176zm29.75 0l1.992-.176A2 2 0 0048.875 40v2zM51 66v2a2 2 0 001.992-2.176L51 66zm-34 0l-1.992-.176A2 2 0 0017 68v-2zm19-24a2 2 0 10-4 0h4zm-4 24a2 2 0 104 0h-4zM19 52a2 2 0 100 4v-4zm30 4a2 2 0 100-4v4zM22 34c0-6.627 5.372-12 12-12v-4c-8.837 0-16 7.163-16 16h4zm12-12c6.627 0 12 5.373 12 12h4c0-8.837-7.164-16-16-16v4zm32 10H56v4h10v-4zM55.213 9.958l-7.07 7.071 2.828 2.829 7.07-7.071-2.828-2.829zM32 2v10h4V2h-4zM12 32H2v4h10v-4zm7.858-14.97l-7.071-7.072-2.829 2.829 7.071 7.07 2.829-2.828zM19.125 44h29.75v-4h-29.75v4zm27.758-1.824l2.125 24 3.984-.352-2.125-24-3.984.352zM51 64H17v4h34v-4zm-32.008 2.176l2.125-24-3.984-.352-2.125 24 3.984.352zM32 42v24h4V42h-4zM19 56h30v-4H19v4z" fill="#272727"/></svg>