<svg width="349" height="140" viewBox="0 0 349 140" fill="none" xmlns="http://www.w3.org/2000/svg"><path d="M170.7 1C121.595 15.9 69.77 29.646 25.279 56.108c-6.745 4.012-34.224 22.078-20.484 33.8 5.069 4.325 17.1 5.714 22.276 6.2 23.606 2.211 47.916 1.166 71.33-2.325 17.243-2.571 31.182-6.064 47.941-10.847 16.978-4.846 38.495-9.86 53.316-20.34 4.984-3.523 2.506-5.742-2.227-6.585-16.697-2.973-36.254.258-52.687 2.663-29.155 4.269-58.573 12.023-82.904 29.395-2.177 1.554-11.739 9.179-12.687 13.268-2.63 11.336 24.601 18.481 28.474 19.709 57.238 18.155 210.915 12.197 269.611 10.031m0 0L340.161 124m7.077 7.077l-7.077 7.078" stroke="#FFDC14" stroke-width="2" stroke-linecap="round"/></svg>