<svg width="18" height="18" viewBox="0 0 18 18" fill="none" xmlns="http://www.w3.org/2000/svg">
<path d="M17.0273 17.1339C17.1054 17.2231 17.1389 17.3235 17.1277 17.4351C17.1277 17.5578 17.0831 17.6582 16.9939 17.7363C16.9604 17.7809 16.9158 17.8088 16.86 17.82C16.8154 17.8423 16.7652 17.8535 16.7094 17.8535C16.6536 17.8535 16.5978 17.8423 16.542 17.82C16.4863 17.7977 16.4361 17.7642 16.3914 17.7196L11.3042 12.1638C10.7352 12.6212 10.1049 12.9726 9.4132 13.218C8.73267 13.4523 8.02424 13.5695 7.28793 13.5695C6.4289 13.5695 5.60892 13.4077 4.82798 13.0842C4.04704 12.7606 3.34978 12.2976 2.73618 11.6952C2.13374 11.0816 1.67076 10.3843 1.34723 9.60341C1.0237 8.82247 0.861932 8.00248 0.861932 7.14345C0.861932 6.28442 1.0237 5.46444 1.34723 4.6835C1.67076 3.90256 2.13374 3.21088 2.73618 2.60844C3.34978 1.99484 4.04704 1.52628 4.82798 1.20275C5.60892 0.879219 6.4289 0.717453 7.28793 0.717453C8.14696 0.717453 8.96695 0.879219 9.74788 1.20275C10.5288 1.52628 11.2261 1.99484 11.8397 2.60844C12.4421 3.21088 12.9051 3.90256 13.2286 4.6835C13.5522 5.46444 13.7139 6.28442 13.7139 7.14345C13.7139 7.98017 13.5577 8.78342 13.2454 9.5532C12.9442 10.3118 12.5091 10.9868 11.9401 11.5781L17.0273 17.1339ZM1.71538 7.14345C1.71538 7.91323 1.86042 8.63839 2.15048 9.31892C2.4517 9.9883 2.85332 10.5796 3.35535 11.0928C3.85738 11.5948 4.44867 11.9908 5.1292 12.2809C5.79857 12.571 6.51815 12.716 7.28793 12.716C8.05771 12.716 8.77729 12.571 9.44667 12.2809C10.1272 11.9908 10.7185 11.5948 11.2205 11.0928C11.7225 10.5796 12.1242 9.9883 12.4254 9.31892C12.7154 8.63839 12.8605 7.91323 12.8605 7.14345C12.8605 6.37367 12.7154 5.65409 12.4254 4.98472C12.1242 4.30419 11.7225 3.71291 11.2205 3.21088C10.7185 2.70884 10.1272 2.3128 9.44667 2.02273C8.77729 1.72152 8.05771 1.57091 7.28793 1.57091C6.51815 1.57091 5.79857 1.72152 5.1292 2.02273C4.44867 2.3128 3.85738 2.70884 3.35535 3.21088C2.85332 3.71291 2.4517 4.30419 2.15048 4.98472C1.86042 5.65409 1.71538 6.37367 1.71538 7.14345Z" fill="#0645AD"/>
</svg>