<svg width="24" height="24" viewBox="0 0 24 24" fill="none" xmlns="http://www.w3.org/2000/svg">
<path d="M12.0022 15.167C10.2597 15.167 8.83514 13.7467 8.83514 12C8.83514 10.2533 10.2554 8.83298 12.0022 8.83298C13.7489 8.83298 15.1692 10.2533 15.1692 12C15.1692 13.7467 13.7447 15.167 12.0022 15.167ZM18.209 6.92938C18.209 7.56108 17.7003 8.0656 17.0728 8.0656C16.4411 8.0656 15.9366 7.55684 15.9366 6.92938C15.9366 6.30191 16.4453 5.79315 17.0728 5.79315C17.7003 5.79315 18.209 6.30191 18.209 6.92938ZM21.4354 8.08256C21.3633 6.56053 21.0157 5.21232 19.9006 4.10153C18.7898 2.99074 17.4416 2.64309 15.9196 2.56677C14.3509 2.47774 9.64916 2.47774 8.08049 2.56677C6.56269 2.63885 5.21448 2.9865 4.09945 4.09729C2.98442 5.20808 2.64101 6.55629 2.5647 8.07832C2.47567 9.64699 2.47567 14.3488 2.5647 15.9174C2.63677 17.4395 2.98442 18.7877 4.09945 19.8985C5.21448 21.0093 6.55845 21.3569 8.08049 21.4332C9.64916 21.5223 14.3509 21.5223 15.9196 21.4332C17.4416 21.3612 18.7898 21.0135 19.9006 19.8985C21.0114 18.7877 21.3591 17.4395 21.4354 15.9174C21.5244 14.3488 21.5244 9.65123 21.4354 8.08256Z" fill="#5A626D"/>
</svg>
