<svg width="24" height="24" viewBox="0 0 24 24" fill="none" xmlns="http://www.w3.org/2000/svg">
<path d="M6.7528 21.5H2.8136V8.81467H6.7528V21.5ZM4.78108 7.08428C3.52145 7.08428 2.49976 6.04095 2.49976 4.78132C2.49976 4.17628 2.74011 3.59602 3.16794 3.16818C3.59577 2.74035 4.17603 2.5 4.78108 2.5C5.38612 2.5 5.96639 2.74035 6.39422 3.16818C6.82205 3.59602 7.0624 4.17628 7.0624 4.78132C7.0624 6.04095 6.04028 7.08428 4.78108 7.08428ZM21.4959 21.5H17.5652V15.3249C17.5652 13.8532 17.5355 11.9659 15.5172 11.9659C13.4691 11.9659 13.1553 13.5648 13.1553 15.2188V21.5H9.22031V8.81467H12.9983V10.5451H13.0535C13.5794 9.54839 14.864 8.49658 16.7806 8.49658C20.7673 8.49658 21.5002 11.1219 21.5002 14.5318V21.5H21.4959Z" fill="#5A626D"/>
</svg>
