<svg width="268" height="61" viewBox="0 0 268 61" fill="none" xmlns="http://www.w3.org/2000/svg">
<line x1="4.37114e-08" y1="29.5" x2="103" y2="29.5" stroke="#E5E6E8"/>
<line x1="165" y1="29.5" x2="268" y2="29.5" stroke="#E5E6E8"/>
<path d="M154.984 40.623C155.375 40.9811 155.668 41.388 155.863 41.8438C156.059 42.2669 156.173 42.7389 156.205 43.2598C156.205 43.748 156.107 44.2201 155.912 44.6758C155.749 45.1315 155.489 45.5384 155.131 45.8965L152.396 48.6309C152.038 48.9564 151.632 49.2168 151.176 49.4121C150.753 49.6074 150.297 49.7051 149.809 49.7051C149.32 49.7051 148.832 49.6074 148.344 49.4121C147.888 49.1842 147.481 48.875 147.123 48.4844L137.162 37.5469L127.348 48.4844C127.022 48.8424 126.632 49.1354 126.176 49.3633C125.72 49.5586 125.248 49.6725 124.76 49.7051C124.727 49.7051 124.695 49.7051 124.662 49.7051C124.174 49.7051 123.702 49.6074 123.246 49.4121C122.823 49.2168 122.432 48.9564 122.074 48.6309L119.389 45.8965C119.031 45.5384 118.754 45.1315 118.559 44.6758C118.396 44.2201 118.314 43.748 118.314 43.2598C118.314 42.7389 118.412 42.2669 118.607 41.8438C118.835 41.388 119.145 40.9974 119.535 40.6719L130.814 30.5156L125.492 24.7051C125.395 24.5749 125.264 24.4772 125.102 24.4121C124.971 24.347 124.825 24.3145 124.662 24.3145C124.532 24.3145 124.385 24.347 124.223 24.4121C124.092 24.4772 123.979 24.5586 123.881 24.6562L121.879 26.6582C121.781 26.7559 121.651 26.8372 121.488 26.9023C121.326 26.9674 121.163 27 121 27H119.73V28.2695C119.73 28.4323 119.698 28.5951 119.633 28.7578C119.6 28.888 119.519 29.0182 119.389 29.1484L116.898 31.6387C116.638 31.8665 116.329 31.9805 115.971 31.9805C115.645 31.9805 115.352 31.8665 115.092 31.6387L110.111 26.6094C109.883 26.3815 109.77 26.1048 109.77 25.7793C109.77 25.4212 109.883 25.112 110.111 24.8516L112.602 22.3613C112.732 22.2311 112.862 22.1497 112.992 22.1172C113.155 22.0521 113.318 22.0195 113.48 22.0195H114.75V20.75C114.75 20.5872 114.783 20.4245 114.848 20.2617C114.913 20.099 114.994 19.9688 115.092 19.8711L123.881 11.1309C124.174 10.8379 124.76 10.5612 125.639 10.3008C126.518 10.0078 128.227 9.79622 130.766 9.66602C132.1 9.56836 133.288 9.51953 134.33 9.51953C135.404 9.51953 135.958 9.51953 135.99 9.51953C136.251 9.51953 136.479 9.58464 136.674 9.71484C136.902 9.84505 137.064 10.0241 137.162 10.252C137.26 10.5124 137.276 10.7728 137.211 11.0332C137.178 11.2611 137.064 11.4564 136.869 11.6191L131.156 17.3809C131.026 17.4785 130.928 17.6087 130.863 17.7715C130.831 17.9017 130.814 18.0482 130.814 18.2109C130.814 18.3411 130.847 18.4876 130.912 18.6504C130.977 18.7806 131.075 18.8945 131.205 18.9922L137.357 24.6074L139.115 22.9961C138.92 22.4427 138.757 21.873 138.627 21.2871C138.529 20.7012 138.48 20.099 138.48 19.4805C138.48 18.1133 138.757 16.8275 139.311 15.623C139.831 14.3861 140.531 13.3281 141.41 12.4492C142.322 11.5378 143.396 10.8216 144.633 10.3008C145.837 9.77995 147.123 9.51953 148.49 9.51953C149.304 9.51953 150.102 9.61719 150.883 9.8125C151.664 9.97526 152.396 10.2357 153.08 10.5938C153.275 10.6914 153.422 10.8216 153.52 10.9844C153.65 11.1471 153.731 11.3262 153.764 11.5215C153.796 11.7168 153.78 11.9121 153.715 12.1074C153.65 12.3027 153.552 12.4655 153.422 12.5957L148.49 17.5273V19.4805H150.492L155.375 14.5977C155.538 14.4674 155.701 14.3698 155.863 14.3047C156.059 14.2396 156.254 14.2233 156.449 14.2559C156.645 14.2884 156.824 14.3698 156.986 14.5C157.149 14.5977 157.279 14.7279 157.377 14.8906C157.735 15.6068 158.012 16.3555 158.207 17.1367C158.402 17.918 158.5 18.6992 158.5 19.4805C158.5 20.8802 158.24 22.1823 157.719 23.3867C157.198 24.5911 156.482 25.6491 155.57 26.5605C154.659 27.472 153.601 28.1882 152.396 28.709C151.192 29.2298 149.89 29.4902 148.49 29.4902C147.872 29.4902 147.27 29.4414 146.684 29.3438C146.098 29.2461 145.528 29.0833 144.975 28.8555L143.656 30.3203L154.984 40.623ZM141.752 22.8008C141.882 23.0612 141.915 23.3379 141.85 23.6309C141.817 23.8913 141.687 24.1029 141.459 24.2656L139.213 26.3164L141.801 28.6602L143.705 26.5117C143.9 26.3164 144.128 26.2025 144.389 26.1699C144.682 26.1048 144.958 26.1211 145.219 26.2188C145.707 26.4792 146.228 26.6745 146.781 26.8047C147.335 26.9349 147.904 27 148.49 27C150.574 27 152.348 26.2676 153.812 24.8027C155.277 23.3379 156.01 21.5638 156.01 19.4805C156.01 19.1875 155.993 18.8945 155.961 18.6016C155.928 18.3086 155.88 18.0156 155.814 17.7227L151.859 21.6289C151.762 21.7591 151.632 21.8568 151.469 21.9219C151.306 21.987 151.143 22.0195 150.98 22.0195H147.27C146.911 22.0195 146.602 21.9056 146.342 21.6777C146.114 21.4173 146 21.1081 146 20.75V16.9902C146 16.8275 146.033 16.681 146.098 16.5508C146.163 16.388 146.244 16.2415 146.342 16.1113L150.297 12.2051C150.004 12.14 149.711 12.0911 149.418 12.0586C149.125 12.026 148.816 12.0098 148.49 12.0098C146.439 12.0098 144.682 12.7422 143.217 14.207C141.752 15.6719 141.02 17.4297 141.02 19.4805C141.02 20.0664 141.068 20.6361 141.166 21.1895C141.296 21.7428 141.492 22.2799 141.752 22.8008ZM124.662 21.8242C125.183 21.8242 125.671 21.9382 126.127 22.166C126.615 22.3613 127.022 22.638 127.348 22.9961L129.35 25.1934L131.693 22.8496L129.496 20.8477C129.138 20.5221 128.845 20.1315 128.617 19.6758C128.422 19.2201 128.324 18.748 128.324 18.2598C128.292 17.7715 128.373 17.2995 128.568 16.8438C128.764 16.3555 129.04 15.9323 129.398 15.5742L132.914 12.0586C132.654 12.0586 132.361 12.0749 132.035 12.1074C131.742 12.1074 131.449 12.1237 131.156 12.1562C128.943 12.2539 127.478 12.4004 126.762 12.5957C126.078 12.7585 125.688 12.8724 125.59 12.9375L117.24 21.2871V23.2402C117.24 23.5983 117.11 23.9076 116.85 24.168C116.622 24.3958 116.345 24.5098 116.02 24.5098H114.018L112.748 25.7305L116.02 29.002L117.24 27.7324V25.7305C117.24 25.4049 117.354 25.1283 117.582 24.9004C117.842 24.64 118.152 24.5098 118.51 24.5098H120.463L122.074 22.8984C122.432 22.5404 122.823 22.2799 123.246 22.1172C123.702 21.9219 124.174 21.8242 124.662 21.8242ZM125.492 46.8242L135.502 35.6914L132.475 32.3711L121.195 42.5273C121.065 42.625 120.967 42.7389 120.902 42.8691C120.837 42.9993 120.805 43.1458 120.805 43.3086C120.805 43.4714 120.837 43.6178 120.902 43.748C120.967 43.8783 121.049 44.0085 121.146 44.1387L123.881 46.8242C123.979 46.9544 124.092 47.0521 124.223 47.1172C124.385 47.1497 124.548 47.166 124.711 47.166C124.841 47.166 124.971 47.1335 125.102 47.0684C125.264 47.0033 125.395 46.9219 125.492 46.8242ZM153.324 44.1387C153.454 44.0085 153.552 43.8783 153.617 43.748C153.682 43.6178 153.699 43.4714 153.666 43.3086C153.666 43.1458 153.633 42.9993 153.568 42.8691C153.503 42.7389 153.422 42.6087 153.324 42.4785L133.549 24.5098L131.01 27.0488L148.979 46.8242C149.109 46.9219 149.239 47.0033 149.369 47.0684C149.532 47.1335 149.678 47.166 149.809 47.166C149.971 47.166 150.118 47.1497 150.248 47.1172C150.411 47.0521 150.541 46.9544 150.639 46.8242L153.324 44.1387Z" fill="#00E4A5"/>
</svg>
