<!-- Generated by IcoMoon.io -->
<svg version="1.1" xmlns="http://www.w3.org/2000/svg" width="32" height="32" viewBox="0 0 32 32">
<path d="M16.8 25.6c-1.323 0-2.4-1.077-2.4-2.4s1.077-2.4 2.4-2.4c1.323 0 2.4 1.077 2.4 2.4s-1.077 2.4-2.4 2.4zM16.8 22.4c-0.441 0-0.8 0.359-0.8 0.8s0.359 0.8 0.8 0.8 0.8-0.359 0.8-0.8-0.359-0.8-0.8-0.8zM11.285 20.749c-0.138 0-0.278-0.036-0.406-0.111-0.38-0.225-0.506-0.715-0.282-1.096 0.626-1.059 1.518-1.946 2.58-2.565 1.095-0.639 2.348-0.977 3.623-0.977s2.527 0.338 3.623 0.977c1.062 0.62 1.954 1.507 2.58 2.565 0.225 0.38 0.099 0.871-0.282 1.096s-0.871 0.099-1.096-0.282c-1.005-1.7-2.853-2.756-4.825-2.756s-3.821 1.056-4.825 2.756c-0.149 0.253-0.416 0.393-0.69 0.393zM25.771 17.293c-0.243 0-0.484-0.111-0.641-0.32-1.986-2.651-5.022-4.172-8.33-4.172s-6.344 1.521-8.33 4.172c-0.265 0.354-0.766 0.425-1.12 0.161s-0.426-0.766-0.161-1.12c1.094-1.461 2.53-2.672 4.151-3.502 1.7-0.87 3.537-1.311 5.46-1.311s3.759 0.441 5.46 1.311c1.621 0.83 3.056 2.040 4.151 3.502 0.265 0.354 0.193 0.855-0.161 1.12-0.144 0.108-0.312 0.16-0.479 0.16zM29.189 13.874c-0.232 0-0.461-0.1-0.62-0.293-2.902-3.547-7.192-5.581-11.77-5.581s-8.867 2.034-11.77 5.581c-0.28 0.342-0.784 0.392-1.126 0.113s-0.392-0.784-0.112-1.126c3.207-3.919 7.949-6.167 13.008-6.167s9.801 2.248 13.008 6.167c0.28 0.342 0.229 0.846-0.113 1.126-0.148 0.122-0.328 0.181-0.506 0.181z"></path>
</svg>
