<!-- Generated by IcoMoon.io -->
<svg version="1.1" xmlns="http://www.w3.org/2000/svg" width="32" height="32" viewBox="0 0 32 32">
<path d="M29.6 28.8h-28.8c-0.442 0-0.8-0.358-0.8-0.8v-16c0-0.442 0.358-0.8 0.8-0.8h28.8c0.442 0 0.8 0.358 0.8 0.8v16c0 0.442-0.358 0.8-0.8 0.8zM1.6 27.2h27.2v-14.4h-27.2v14.4zM18.4 19.2h-5.6v-1.6h5.6c0.442 0 0.8-0.358 0.8-0.8s-0.358-0.8-0.8-0.8h-2.4v-0.8c0-0.442-0.358-0.8-0.8-0.8s-0.8 0.358-0.8 0.8v0.8h-2.4c-0.442 0-0.8 0.358-0.8 0.8v3.2c0 0.442 0.358 0.8 0.8 0.8h5.6v1.6h-5.6c-0.442 0-0.8 0.358-0.8 0.8s0.358 0.8 0.8 0.8h2.4v0.8c0 0.442 0.358 0.8 0.8 0.8s0.8-0.358 0.8-0.8v-0.8h2.4c0.442 0 0.8-0.358 0.8-0.8v-3.2c0-0.442-0.358-0.8-0.8-0.8zM28 9.6h-25.6c-0.442 0-0.8-0.358-0.8-0.8s0.358-0.8 0.8-0.8h25.6c0.442 0 0.8 0.358 0.8 0.8s-0.358 0.8-0.8 0.8zM26.4 6.4h-22.4c-0.442 0-0.8-0.358-0.8-0.8s0.358-0.8 0.8-0.8h22.4c0.442 0 0.8 0.358 0.8 0.8s-0.358 0.8-0.8 0.8z"></path>
</svg>
