<svg id="Layer_2" data-name="Layer 2" xmlns="http://www.w3.org/2000/svg" viewBox="0 0 96.1 96.1"><defs><style>.cls-1{fill:#fff}</style></defs><g id="Layer_1-2" data-name="Layer 1"><circle cx="48.05" cy="48.05" r="48.05" fill="#ffdc14"/><path class="cls-1" d="M53.95 47.47c-.27-.27-.71-.49-1.03-.49h-2.07l1.86-7.48c.24-.86.02-1.17-.36-1.25-.64-.13-.99.23-1.12.39l-.02.02-9.33 11.28c-.43.55-.34 1.59.25 2.18.43.43 1.02.55 1.59.55h1.51l-1.83 7.39c-.26.91 0 1.18.37 1.26.71.15 1.14-.39 1.14-.39l9.06-10.96c.64-.72.67-1.81-.02-2.5zm-.22-27.02c0-.07 0-.13-.01-.2v-.04c-.12-.81-.82-1.44-1.66-1.44h-7.94c-.85 0-1.66.69-1.66 1.44v1.42h11.28v-1.18z"/><path class="cls-1" d="M60.86 27.13s.06.03.06.06v45.19s-.03.06-.06.06h-25.6s-.06-.03-.06-.06V27.19s.03-.06.06-.06h25.6m0-2.67h-25.6c-1.51 0-2.73 1.22-2.73 2.73v45.19c0 1.51 1.22 2.73 2.73 2.73h25.6c1.51 0 2.73-1.22 2.73-2.73V27.19c0-1.51-1.22-2.73-2.73-2.73z"/></g></svg>