<svg id="Layer_2" xmlns="http://www.w3.org/2000/svg" viewBox="0 0 96.1 96.1"><defs><style>.cls-1{fill:#46413e;stroke-width:0}</style></defs><g id="Layer_2-2"><g id="Layer_1-2"><path class="cls-1" d="M60.86 27.13h-25.6c-.03 0-.06.06-.06.06v45.19c0 .03.06.06.06.06h25.6c.03 0 .06-.06.06-.06V27.19c0-.03-.06-.06-.06-.06zm-6.89 22.84l-9.06 10.96s-.43.54-1.14.39c-.37-.08-.63-.35-.37-1.26l1.83-7.39h-1.51c-.57 0-1.16-.12-1.59-.55-.59-.59-.68-1.63-.25-2.18l9.33-11.28.02-.02c.13-.16.48-.52 1.12-.39.38.08.6.39.36 1.25l-1.86 7.48h2.07c.32 0 .76.22 1.03.49.69.69.66 1.78.02 2.5z"/><path class="cls-1" d="M48.05 0C21.513 0 0 21.513 0 48.05S21.513 96.1 48.05 96.1 96.1 74.587 96.1 48.05 74.587 0 48.05 0zm-5.59 20.21c0-.75.81-1.44 1.66-1.44h7.94c.84 0 1.54.63 1.66 1.44v.04c.01.07.01.13.01.2h.01v1.18H42.46v-1.42zm21.13 52.17c0 1.51-1.22 2.73-2.73 2.73h-25.6c-1.51 0-2.73-1.22-2.73-2.73V27.19c0-1.51 1.22-2.73 2.73-2.73h25.6c1.51 0 2.73 1.22 2.73 2.73v45.19z"/></g></g></svg>