<svg id="Layer_2" data-name="Layer 2" xmlns="http://www.w3.org/2000/svg" viewBox="0 0 95.86 95.86"><defs><style>.cls-1{fill:#fff}</style></defs><g id="Layer_1-2" data-name="Layer 1"><circle cx="47.93" cy="47.93" r="47.93" fill="#ffdc14"/><path class="cls-1" d="M77.8 38.02c-3.65-2.74-10.86-3.28-13.1-3.39-2.84-3.46-7.48-7.73-15.49-7.73s-12.97 5.33-14.71 7.82c-.62 0-1.52-.02-2.35-.02-3.69 0-7.18 3.44-7.18 7.07v.24c-3.13 0-5.6.81-7.36 2.44-3.12 2.89-3.12 7.45-3.12 9.9 0 4.31 3.17 10.73 11.89 10.73h20.98c.61 2.23 2.64 3.87 5.05 3.87h1.58c.78 0 1.41-.63 1.41-1.41v-.33h2.44c.78 0 1.41-.63 1.41-1.41s-.63-1.41-1.41-1.41H55.4v-1.46h2.44c.78 0 1.41-.63 1.41-1.41s-.63-1.41-1.41-1.41H55.4v-.3c0-.78-.63-1.41-1.41-1.41h-1.58c-2.4 0-4.43 1.64-5.05 3.87H26.38c-7.17 0-9.06-5.17-9.06-7.9 0-2.16 0-5.78 2.22-7.83 1.22-1.13 3.05-1.7 5.44-1.69v4.17c0 .78.63 1.41 1.41 1.41h5.08c.64 2.66 3.03 4.65 5.89 4.65s5.25-1.99 5.89-4.65h19.22c.64 2.66 3.03 4.65 5.89 4.65s5.25-1.99 5.89-4.65h5.64c.78 0 1.41-.64 1.41-1.41 0-.06 0-.17.02-.31.31-5.11-.87-8.7-3.51-10.68zm-25.38 23.2h.17v4.92h-.17c-1.33 0-2.42-1.1-2.42-2.46s1.08-2.46 2.42-2.46zm-15.06-8.98c-1.79 0-3.24-1.45-3.24-3.24s1.45-3.23 3.24-3.23S40.6 47.22 40.6 49s-1.45 3.24-3.24 3.24zm31 0c-1.79 0-3.24-1.45-3.24-3.24s1.45-3.23 3.24-3.23S71.6 47.22 71.6 49s-1.45 3.24-3.24 3.24zm5.89-4.65c-.64-2.66-3.03-4.65-5.89-4.65s-5.25 1.99-5.89 4.65H43.25c-.64-2.66-3.03-4.65-5.89-4.65s-5.25 1.99-5.89 4.65H27.8v-5.82c0-2.1 2.2-4.25 4.35-4.25 1.42 0 3.07.03 3.07.03.5.02.96-.24 1.22-.66 1.05-1.68 5.07-7.17 12.76-7.17 7.11 0 11.05 3.83 13.69 7.17.26.33.66.53 1.08.54 2.38.05 9.19.65 12.13 2.85 1.69 1.27 2.5 3.73 2.43 7.32h-4.29z"/><path class="cls-1" d="M52.3 37.1h-1.08l1.03-4.15.02-.09c.1-.43-.03-.57-.22-.61-.33-.07-.55.14-.62.21l-.02.02-5.18 6.27c-.24.38-.2.89.13 1.22.29.28.72.3.85.3h.88s-1 3.98-1.04 4.19c-.06.25-.02.55.23.62.37.11.63-.21.63-.21s4.68-5.66 5.03-6.1c.35-.45.38-1 0-1.38-.15-.16-.34-.27-.65-.27z"/></g></svg>