<svg xmlns="http://www.w3.org/2000/svg" width="64" height="64" viewBox="0 0 64 64" fill="none"><g clip-path="url(#clip0_4087_2740)"><path d="M32 64c17.673 0 32-14.327 32-32C64 14.327 49.673 0 32 0 14.327 0 0 14.327 0 32c0 17.673 14.327 32 32 32z" fill="#46413E"/><path d="M47.65 17.016h-31.3v26.639h31.3v-26.64z" stroke="#fff" stroke-width="2.204" stroke-linecap="round" stroke-linejoin="round"/><path d="M29.336 40.285c5.495 0 9.95-4.455 9.95-9.95 0-5.495-4.455-9.95-9.95-9.95-5.495 0-9.95 4.455-9.95 9.95 0 5.495 4.455 9.95 9.95 9.95z" stroke="#fff" stroke-width="1.332" stroke-linecap="round" stroke-linejoin="round"/><path d="M29.383 32.46a2.051 2.051 0 100-4.102 2.051 2.051 0 000 4.102zm-.773-4.256c-.2-.666-.692-2.011-1.638-3.11-.346-.406-.46-.972-.233-1.452.167-.346.506-.646 1.179-.646l1.711.093c.566.034 1.126.207 1.585.54.553.406 1.053 1.079.766 2.164-.053.2-.14.393-.26.566l-1.232 1.885" stroke="#fff" stroke-width="1.332" stroke-linecap="round" stroke-linejoin="round"/><path d="M31.754 30.875c.68.146 2.091.373 3.516.093.52-.106 1.072.073 1.386.506.226.313.32.753-.007 1.346l-.92 1.445c-.306.48-.732.886-1.245 1.119-.619.286-1.458.393-2.264-.387a1.79 1.79 0 01-.366-.5l-1.04-1.99m-3.016-.274c-.486.493-1.425 1.572-1.945 2.93-.186.5-.632.873-1.165.907-.386.026-.813-.127-1.139-.727l-.74-1.545a2.95 2.95 0 01-.286-1.651c.087-.68.447-1.445 1.526-1.712.2-.053.413-.066.619-.046l2.244.18" stroke="#fff" stroke-width="1.332" stroke-linecap="round" stroke-linejoin="round"/><path d="M19.68 44.247v2.737m24.64-2.737v2.737" stroke="#fff" stroke-width="2.204" stroke-linecap="round" stroke-linejoin="round"/><path d="M44.287 21.464a.932.932 0 100-1.864.932.932 0 000 1.864z" fill="#fff"/><path d="M39.046 20.532h2.79m-1.717 2.623h4.322m-5.395 17.003h5.394M41.45 25.78h2.99" stroke="#fff" stroke-width="1.332" stroke-linecap="round" stroke-linejoin="round"/></g><defs><clipPath id="clip0_4087_2740"><path fill="#fff" d="M0 0h64v64H0z"/></clipPath></defs></svg>