<svg id="Layer_2" data-name="Layer 2" xmlns="http://www.w3.org/2000/svg" viewBox="0 0 96.1 96.1"><defs><style>.cls-1{fill:#fff}</style></defs><g id="Layer_1-2" data-name="Layer 1"><circle cx="48.05" cy="48.05" r="48.05" fill="#46413e"/><path class="cls-1" d="M54.65 45.38c-.3-.3-.8-.55-1.15-.55h-2.32l2.08-8.36c.27-.97.02-1.31-.41-1.4-.71-.14-1.11.26-1.26.44l-.02.02-10.43 12.61c-.48.61-.38 1.77.28 2.43.48.48 1.14.61 1.78.61h1.68l-2.05 8.26c-.29 1.02 0 1.32.42 1.41.8.16 1.27-.43 1.27-.43l10.12-12.25c.71-.81.75-2.03-.02-2.79z"/><path class="cls-1" d="M71 34.07a26.752 26.752 0 00-10.06-9.64c-.75-.41-1.7-.14-2.11.61-.41.75-.14 1.7.61 2.11 3.66 2.01 6.73 4.96 8.89 8.53 2.22 3.68 3.4 7.9 3.4 12.22 0 3.19-.63 6.29-1.86 9.2-1.19 2.82-2.9 5.34-5.07 7.52-2.17 2.17-4.7 3.88-7.52 5.07-2.78 1.18-5.73 1.8-8.76 1.85l2.57-3.1-2.39-1.98-3.41 4.12s-.02.03-.04.04l-1.13 1.47c-.44.57-.43 1.37.03 1.93l4.6 5.65 2.41-1.96-2.49-3.06c3.4-.07 6.71-.78 9.83-2.1a26.67 26.67 0 008.5-5.73c2.46-2.46 4.39-5.32 5.73-8.5 1.4-3.3 2.1-6.8 2.1-10.41 0-4.89-1.33-9.67-3.85-13.83zM51.59 22.04l-4.6-5.65-2.41 1.96 2.32 2.85A26.67 26.67 0 0029.32 29a26.563 26.563 0 00-5.73 8.5c-1.4 3.3-2.1 6.8-2.1 10.41 0 4.85 1.31 9.6 3.79 13.74 2.41 4.02 5.84 7.35 9.93 9.63.24.13.5.2.76.2.54 0 1.07-.29 1.36-.8.42-.75.15-1.7-.6-2.11A23.655 23.655 0 0124.6 47.91c0-3.19.63-6.29 1.86-9.2 1.19-2.82 2.9-5.34 5.07-7.52 2.17-2.17 4.7-3.88 7.52-5.07 2.66-1.13 5.47-1.74 8.37-1.84l-2.75 3.32 2.39 1.98 3.41-4.12s.02-.03.04-.04l1.13-1.47c.44-.57.43-1.37-.03-1.93z"/></g></svg>