<svg id="Layer_2" data-name="Layer 2" xmlns="http://www.w3.org/2000/svg" viewBox="0 0 96.1 96.1"><g id="Layer_1-2" data-name="Layer 1"><circle cx="48.05" cy="48.05" r="48.05" fill="#ffdc14"/><path d="M71.79 67.39l-5.16-23.78c-.13-.6-.7-1.03-1.35-1.03H30.77c-.66 0-1.22.43-1.35 1.02l-5.18 23.78c-.17.79.57 1.47 1.44 1.47h20.87v2.86h-8.52v2.81h19.85v-2.81h-8.52v-2.86h21.02c.87 0 1.58-.67 1.41-1.47zm-42.58-9.91l1.08-4.94h6.85l-.57 4.94h-7.35zm7.03 2.82l-.66 5.75h-8.23l1.25-5.75h7.64zm1.72-14.9l-.5 4.33H30.9l.94-4.33h6.12zm26.25 0l.94 4.33h-6.68L58 45.4h6.21zm-8.55 4.33h-6.29V45.4h5.81l.47 4.33zm-9.1 0h-6.28l.5-4.33h5.78v4.33zm-6.61 2.81h6.61v4.94h-7.18l.57-4.94zm9.42 0h6.59l.54 4.94h-7.14v-4.94zm9.41 0h6.98l1.07 4.94h-7.51l-.54-4.94zm8.66 7.76l1.25 5.75h-8.43l-.63-5.75h7.81zm-29.05 5.74l.66-5.75h7.5v5.75h-8.17zm10.98-5.74h7.44l.63 5.75h-8.07V60.3zm8.87-33.34h-3.29a6.9 6.9 0 00-.95-2.48l2.27-2.27c.55-.55.55-1.44 0-1.98-.55-.55-1.44-.55-1.98 0l-2.22 2.22c-.78-.55-1.64-.92-2.54-1.12v-3.07c0-.77-.63-1.4-1.4-1.4s-1.4.63-1.4 1.4v3.02c-.93.17-1.83.53-2.64 1.07l-2.12-2.12c-.55-.55-1.44-.55-1.98 0-.55.55-.55 1.44 0 1.98l2.12 2.12c-.53.81-.88 1.71-1.05 2.63h-3.05c-.77 0-1.4.63-1.4 1.4s.63 1.4 1.4 1.4h3.11c.2.88.57 1.74 1.11 2.5l-2.25 2.25c-.55.55-.55 1.44 0 1.98a1.401 1.401 0 001.98 0l2.31-2.31c.76.47 1.59.79 2.45.94v3.34c0 .77.63 1.4 1.4 1.4s1.4-.63 1.4-1.4v-3.39c.82-.18 1.62-.51 2.35-.99l2.41 2.41a1.401 1.401 0 001.98-1.98l-2.4-2.4c.49-.73.82-1.53 1.01-2.36h3.36c.77 0 1.4-.63 1.4-1.4s-.63-1.4-1.4-1.4zm-7.2 4.28a4.285 4.285 0 01-6.07 0 4.285 4.285 0 010-6.07 4.285 4.285 0 016.07 0 4.285 4.285 0 010 6.07z" fill="#fff"/></g></svg>